<?xml version="1.0" encoding="utf-8"?>
<!-- Generator: Adobe Illustrator 22.1.0, SVG Export Plug-In . SVG Version: 6.00 Build 0)  -->
<svg version="1.0" id="Layer_1" xmlns="http://www.w3.org/2000/svg" xmlns:xlink="http://www.w3.org/1999/xlink" x="0px" y="0px"
	 viewBox="0 0 393 128" style="enable-background:new 0 0 393 128;" xml:space="preserve">
<style type="text/css">
	.st0{fill:#C7001C;}
	.st1{fill-rule:evenodd;clip-rule:evenodd;fill:#C7001C;}
	.st2{fill-rule:evenodd;clip-rule:evenodd;fill:none;stroke:#FFFFFF;stroke-width:7;stroke-miterlimit:10;}
	.st3{fill:#FFFFFF;}
</style>
<path class="st0" d="M208.9,12c0-5.1,4.2-9.1,9.3-9.1c5.1,0,9.2,4,9.2,9.1s-4.2,9-9.2,9C213.1,20.9,208.9,17,208.9,12z"/>
<path class="st1" d="M60.3,55.3c-1.8,0-3.5,0.4-4.9,1.3c-1.5,0.8-2.6,2-3.5,3.4c-0.9,1.4-1.3,3-1.3,4.8c0,1.8,0.5,3.4,1.3,4.8
	c0.9,1.4,2,2.5,3.5,3.4c1.5,0.8,3.1,1.3,4.9,1.3c1.8,0,3.4-0.4,4.9-1.3c1.5-0.8,2.6-2,3.5-3.4c0.9-1.4,1.3-3,1.3-4.8
	c0-1.8-0.5-3.4-1.3-4.8c-0.9-1.4-2.1-2.5-3.5-3.4C63.7,55.7,62,55.3,60.3,55.3"/>
<path class="st1" d="M29.3,55.3c-1.8,0-3.5,0.4-4.9,1.3c-1.5,0.8-2.6,2-3.5,3.4c-0.9,1.4-1.3,3-1.3,4.8c0,1.8,0.5,3.4,1.3,4.8
	c0.9,1.4,2,2.5,3.5,3.4c1.5,0.8,3.1,1.3,4.9,1.3c1.8,0,3.4-0.4,4.9-1.3c1.5-0.8,2.6-2,3.5-3.4c0.9-1.4,1.3-3,1.3-4.8
	c0-1.8-0.5-3.4-1.3-4.8c-0.9-1.4-2.1-2.5-3.5-3.4C32.7,55.7,31.1,55.3,29.3,55.3"/>
<path class="st2" d="M60.3,15c-27.5,0-49.8,22.3-49.8,49.8v49.8h49.8c27.5,0,49.8-22.3,49.8-49.8C110,37.3,87.7,15,60.3,15z"/>
<g>
	<path class="st3" d="M199.1,92.5c0,3.3-2.7,6-6.1,6h-43.9c-3.3,0-6.1-2.7-6.1-6c0-1.9,0.7-3.2,2.7-5.6L179,45.3h-27.6
		c-3.5,0-6.1-2.5-6.1-6c0-3.5,2.7-6.1,6.1-6.1h40.5c3.5,0,6.1,2.7,6.1,6c0,2.1-0.9,3.6-2.3,5.2l-33.6,42H193
		C196.4,86.3,199.1,88.9,199.1,92.5z"/>
	<path class="st3" d="M218.4,31.7c-4.1,0-7,3.1-7,7.2v53.8c0,4.1,2.9,7.2,6.9,7.2c4,0,7-3.1,7-7.2V38.9
		C225.3,34.8,222.4,31.7,218.4,31.7z"/>
	<path class="st3" d="M302.5,57.6v35.1c0,4.3-3.1,7.2-6.9,7.2c-4.1,0-7-3.1-7-7.2V59.5c0-9-5.7-15.2-14.2-15.2
		c-8.6,0-14.9,6.4-14.9,15.2v33.2c0,4.3-2.9,7.2-6.9,7.2c-4,0-7-3.1-7-7.2V38.9c0-4.1,2.9-7.2,7-7.2c3.9,0,6.8,3.1,6.8,7.2
		c4.7-4.5,11.2-7.2,18.7-7.2C292.9,31.7,302.5,41.8,302.5,57.6z"/>
	<path class="st3" d="M386,38.9v52.8c0,20.1-12.4,32.2-32.7,32.2c-10.6,0-20.7-3.5-28.3-9.7c-1.7-1.5-2.7-3.2-2.7-5.1
		c0-3.6,2.8-6.4,6.4-6.4c1.5,0,2.8,0.4,4,1.3c6.6,4.9,12.8,7,19.8,7c12.4,0,19.5-6.8,19.5-18.6v-4.7c-4.9,5.8-12.6,9.3-22.1,9.3
		c-18.3,0-31.8-13.7-31.8-32.7s13.4-32.7,31.8-32.7c9.6,0,17.4,3.6,22.2,9.7v-2.5c0-4.1,3.1-7.2,7-7.2C383.1,31.7,386,34.8,386,38.9
		z M372.2,64.3c0-12.1-7.7-20.1-19.7-20.1c-11.6,0-19.9,8.4-19.9,20.2c0,12,8.4,20.5,19.9,20.5C364.3,84.9,372.2,76.6,372.2,64.3z"
		/>
</g>
<path class="st1" d="M90.7,55.3c1.8,0,3.5,0.4,4.9,1.3c1.5,0.8,2.6,2,3.5,3.4c0.9,1.4,1.3,3,1.3,4.8c0,1.8-0.5,3.4-1.3,4.8
	c-0.9,1.4-2,2.5-3.5,3.4c-1.5,0.8-3.1,1.3-4.9,1.3c-1.8,0-3.4-0.4-4.9-1.3c-1.5-0.8-2.6-2-3.5-3.4c-0.9-1.4-1.3-3-1.3-4.8
	c0-1.8,0.5-3.4,1.3-4.8c0.9-1.4,2.1-2.5,3.5-3.4C87.3,55.7,88.9,55.3,90.7,55.3"/>
</svg>
